HIERARCHY
ROOT SpineBase
{
  OFFSET 0.000000 0.000000 0.000000
  CHANNELS 6 Xposition Yposition Zposition Zrotation Xrotation Yrotation
  JOINT SpineMid
  {
    OFFSET 0.000000 28.941811 0.000000
    CHANNELS 3 Zrotation Xrotation Yrotation
    JOINT SpineShoulder
    {
      OFFSET 0.033851 21.597344 -0.729718
      CHANNELS 3 Zrotation Xrotation Yrotation
      JOINT Neck
      {
        OFFSET 0.011247 7.156870 -0.531139
        CHANNELS 3 Zrotation Xrotation Yrotation
        JOINT Head
        {
          OFFSET -3.802413 12.811916 -2.718867
          CHANNELS 3 Zrotation Xrotation Yrotation
          End Site
          {
            OFFSET 0 0 0
          }
        }
      }
      JOINT ShoulderLeft
      {
        OFFSET -16.529663 -2.592313 0.379925
        CHANNELS 3 Zrotation Xrotation Yrotation
        JOINT ElbowLeft
        {
          OFFSET -2.569772 -25.195104 -0.628948
          CHANNELS 3 Zrotation Xrotation Yrotation
          JOINT WristLeft
          {
            OFFSET 0.895670 -18.135726 -7.192810
            CHANNELS 3 Zrotation Xrotation Yrotation
            JOINT HandLeft
            {
              OFFSET 0.811829 -5.632329 -2.051666
              CHANNELS 3 Zrotation Xrotation Yrotation
              JOINT HandTipLeft
              {
                OFFSET -1.443056 -6.271607 -2.252154
                CHANNELS 3 Zrotation Xrotation Yrotation
                End Site
                {
                  OFFSET 0 0 0
                }
              }
              JOINT ThumbLeft
              {
                OFFSET 3.389430 -1.124267 -1.546135
                CHANNELS 3 Zrotation Xrotation Yrotation
                End Site
                {
                  OFFSET 0 0 0
                }
              }
            }
          }
        }
      }
      JOINT ShoulderRight
      {
        OFFSET 15.964547 -2.032972 -2.622404
        CHANNELS 3 Zrotation Xrotation Yrotation
        JOINT ElbowRight
        {
          OFFSET 7.136073 -24.844584 -1.048166
          CHANNELS 3 Zrotation Xrotation Yrotation
          JOINT WristRight
          {
            OFFSET -0.534954 -19.698366 -6.746309
            CHANNELS 3 Zrotation Xrotation Yrotation
            JOINT HandRight
            {
              OFFSET -2.079934 -6.437903 -3.368204
              CHANNELS 3 Zrotation Xrotation Yrotation
              JOINT HandTipRight
              {
                OFFSET 1.583315 -7.001149 -1.307206
                CHANNELS 3 Zrotation Xrotation Yrotation
                End Site
                {
                  OFFSET 0 0 0
                }
              }
              JOINT ThumbRight
              {
                OFFSET -2.193932 -2.091512 0.737360
                CHANNELS 3 Zrotation Xrotation Yrotation
                End Site
                {
                  OFFSET 0 0 0
                }
              }
            }
          }
        }
      }
    }
  }
  JOINT HipLeft
  {
    OFFSET -7.310618 0.710100 -2.913579
    CHANNELS 3 Zrotation Xrotation Yrotation
    JOINT KneeLeft
    {
      OFFSET -4.288887 -28.951454 -0.541135
      CHANNELS 3 Zrotation Xrotation Yrotation
      JOINT AnkleLeft
      {
        OFFSET -2.349988 -32.440987 3.596000
        CHANNELS 3 Zrotation Xrotation Yrotation
        JOINT FootLeft
        {
          OFFSET -0.515739 -3.807254 -13.199104
          CHANNELS 3 Zrotation Xrotation Yrotation
          End Site
          {
            OFFSET 0 0 0
          }
        }
      }
    }
  }
  JOINT HipRight
  {
    OFFSET 7.421959 0.664355 -3.912677
    CHANNELS 3 Zrotation Xrotation Yrotation
    JOINT KneeRight
    {
      OFFSET 4.100037 -27.516918 7.029375
      CHANNELS 3 Zrotation Xrotation Yrotation
      JOINT AnkleRight
      {
        OFFSET 1.115783 -31.852606 8.580072
        CHANNELS 3 Zrotation Xrotation Yrotation
        JOINT FootRight
        {
          OFFSET 3.432103 -7.641951 -4.260663
          CHANNELS 3 Zrotation Xrotation Yrotation
          End Site
          {
            OFFSET 0 0 0
          }
        }
      }
    }
  }
}
MOTION
Frames: 6
Frame Time: 0.033333
-3.085637 68.883819 389.635080 -0.000000 0.000000 3.879605 0.000000 0.000000 -3.879605 -0.000000 0.000000 0.000000 -0.000000 0.000000 0.000000 0.000000 0.000000 0.000000 -0.000000 0.000000 0.000000 -0.000000 0.000000 0.000000 -0.000000 0.000000 0.000000 -0.000000 0.000000 0.000000 0.000000 0.000000 0.000000 0.000000 0.000000 0.000000 -0.000000 0.000000 0.000000 -0.000000 0.000000 0.000000 -0.000000 0.000000 0.000000 -0.000000 0.000000 0.000000 0.000000 0.000000 0.000000 0.000000 0.000000 0.000000 0.000000 0.000000 -3.879605 -0.000000 0.000000 0.000000 -0.000000 0.000000 0.000000 0.000000 0.000000 0.000000 0.000000 0.000000 -3.879605 -0.000000 0.000000 0.000000 -0.000000 0.000000 0.000000 0.000000 0.000000 0.000000
-2.867439 68.824427 389.614946 -0.075299 0.003534 4.778991 0.074743 -0.009795 -4.778982 -0.000000 0.000000 0.000000 -0.000000 0.000000 0.000000 0.000000 0.000000 0.000000 -0.000000 0.000000 0.000000 -0.864229 1.237115 0.411588 3.107682 -4.547368 -1.590390 -2.203958 2.350031 1.532527 0.000000 0.000000 0.000000 0.000000 0.000000 0.000000 2.462733 -2.891994 -0.868128 1.620915 -3.090625 -0.240010 3.494610 -2.937513 0.198518 -8.346068 -1.839207 -0.587151 0.000000 0.000000 0.000000 0.000000 0.000000 0.000000 0.074743 -0.009795 -4.778982 -0.000000 0.000000 0.000000 -0.312520 -0.089161 1.097812 0.000000 0.000000 0.000000 0.074743 -0.009795 -4.778982 -0.000000 0.000000 0.000000 -0.000000 0.000000 0.000000 0.000000 0.000000 0.000000
-2.699841 68.782431 389.604390 -0.148323 0.005277 5.470793 0.147145 -0.019394 -5.470762 -0.000000 0.000000 0.000000 1.148511 0.406035 0.359375 0.000000 0.000000 0.000000 -0.000000 0.000000 0.000000 -1.516947 1.947595 0.719265 5.813774 -8.783651 -2.873148 -3.780156 4.642472 2.956687 0.000000 0.000000 0.000000 0.000000 0.000000 0.000000 4.395765 -5.560161 -1.556210 2.961236 -5.023719 -0.291777 7.371382 -6.625008 0.383874 -15.747224 -3.138009 0.058536 0.000000 0.000000 0.000000 0.000000 0.000000 0.000000 0.147145 -0.019394 -5.470762 -0.000000 0.000000 0.000000 -0.547339 -0.160848 1.926513 0.000000 0.000000 0.000000 0.241701 0.907222 -5.330944 -0.307902 -1.967636 -0.264296 0.295066 1.037589 0.113423 0.000000 0.000000 0.000000
-2.582844 68.757829 389.603414 -0.219140 0.005236 5.957179 0.217414 -0.027951 -5.957116 -0.000000 0.000000 0.000000 1.272264 0.647640 0.454072 0.000000 0.000000 0.000000 -0.000000 0.000000 0.000000 -2.032105 2.276383 0.952163 7.942942 -12.475698 -3.846047 -4.294424 6.686246 3.915946 0.000000 0.000000 0.000000 0.000000 0.000000 0.000000 5.773611 -7.948566 -2.104494 4.082944 -5.912248 -0.283297 10.765884 -10.055994 0.716596 -21.258567 -4.161859 1.282662 0.000000 0.000000 0.000000 0.000000 0.000000 0.000000 0.217414 -0.027951 -5.957116 -0.000000 0.000000 0.000000 -0.705105 -0.211646 2.485334 0.000000 0.000000 0.000000 0.334136 1.221841 -5.774271 -0.348747 -2.607820 -0.338295 0.385571 0.564163 -0.237497 0.000000 0.000000 0.000000
-2.516448 68.750623 389.612016 -0.287814 0.003415 6.239846 0.285738 -0.034677 -6.239751 -0.000000 0.000000 0.000000 1.095289 0.912741 0.494044 0.000000 0.000000 0.000000 -0.000000 0.000000 0.000000 -2.454367 2.294410 1.128258 9.254622 -15.217536 -4.499574 -3.412528 8.249916 4.047934 0.000000 0.000000 0.000000 0.000000 0.000000 0.000000 6.581663 -10.020782 -2.552787 5.068387 -5.917020 -0.299729 13.187433 -12.657902 1.165878 -24.622619 -5.010989 2.358462 0.000000 0.000000 0.000000 0.000000 0.000000 0.000000 0.285738 -0.034677 -6.239751 -0.000000 0.000000 0.000000 -0.786403 -0.239287 2.774106 0.000000 0.000000 0.000000 0.398922 1.439353 -6.032455 -0.314754 -3.020573 -0.370291 0.347132 1.545028 0.143457 0.000000 0.000000 0.000000
-2.500653 68.760812 389.630196 -0.354405 -0.000185 6.319858 0.352271 -0.038828 -6.319739 -0.000000 0.000000 0.000000 0.619029 1.200584 0.481509 0.000000 0.000000 0.000000 0.425611 -0.749402 0.068632 -3.236940 2.779936 1.232215 9.554703 -16.582917 -4.830946 -1.069881 9.065474 3.182117 0.000000 0.000000 0.000000 0.000000 0.000000 0.000000 6.812060 -11.754610 -2.935738 5.995569 -5.178352 -0.386943 14.450053 -14.250673 1.638730 -25.965938 -5.689152 2.822939 0.000000 0.000000 0.000000 0.000000 0.000000 0.000000 0.352271 -0.038828 -6.319739 -0.000000 0.000000 0.000000 -0.791582 -0.242610 2.792850 0.000000 0.000000 0.000000 0.432412 1.557944 -6.106769 -0.205986 -3.206158 -0.359190 0.286082 1.611704 0.129980 0.000000 0.000000 0.000000
